<svg xmlns="http://www.w3.org/2000/svg" style="display:none">
  <!-- Single self-hosted icon sprite. Stroke 1.5px, viewBox 24x24, currentColor. -->
  <defs>
    <style>
      symbol { fill: none; stroke: currentColor; stroke-width: 1.5; stroke-linecap: round; stroke-linejoin: round; }
    </style>
  </defs>

  <symbol id="i-home" viewBox="0 0 24 24"><path d="M4 11 12 4l8 7v8a1 1 0 0 1-1 1h-4v-6h-6v6H5a1 1 0 0 1-1-1Z"/></symbol>
  <symbol id="i-folder" viewBox="0 0 24 24"><path d="M3 7a2 2 0 0 1 2-2h4l2 2h8a2 2 0 0 1 2 2v9a2 2 0 0 1-2 2H5a2 2 0 0 1-2-2Z"/></symbol>
  <symbol id="i-message" viewBox="0 0 24 24"><path d="M4 6a2 2 0 0 1 2-2h12a2 2 0 0 1 2 2v10a2 2 0 0 1-2 2h-7l-5 4v-4H6a2 2 0 0 1-2-2Z"/></symbol>
  <symbol id="i-map" viewBox="0 0 24 24"><path d="M9 4 3 6v14l6-2 6 2 6-2V4l-6 2-6-2Zm0 0v14m6-12v14"/></symbol>
  <symbol id="i-user" viewBox="0 0 24 24"><path d="M16 7a4 4 0 1 1-8 0 4 4 0 0 1 8 0ZM4 21a8 8 0 0 1 16 0"/></symbol>
  <symbol id="i-shield" viewBox="0 0 24 24"><path d="M12 3 4 6v6c0 5 3.5 8 8 9 4.5-1 8-4 8-9V6l-8-3Z"/></symbol>
  <symbol id="i-inbox" viewBox="0 0 24 24"><path d="M4 13h4l2 3h4l2-3h4M4 13V5a2 2 0 0 1 2-2h12a2 2 0 0 1 2 2v8M4 13v6a2 2 0 0 0 2 2h12a2 2 0 0 0 2-2v-6"/></symbol>
  <symbol id="i-video" viewBox="0 0 24 24"><path d="m22 8-6 4 6 4V8Z"/><rect x="2" y="6" width="14" height="12" rx="2" ry="2"/></symbol>
  <symbol id="i-alert" viewBox="0 0 24 24"><path d="M12 9v4m0 4v.01M4.93 19h14.14a2 2 0 0 0 1.73-3L13.73 5a2 2 0 0 0-3.46 0L3.2 16a2 2 0 0 0 1.73 3Z"/></symbol>
  <symbol id="i-lock" viewBox="0 0 24 24"><path d="M7 11V8a5 5 0 1 1 10 0v3m-12 0h14v9H5v-9Z"/></symbol>
  <symbol id="i-unlock" viewBox="0 0 24 24"><path d="M7 11V8a5 5 0 0 1 9.6-2M5 11h14v9H5v-9Z"/></symbol>
  <symbol id="i-eye" viewBox="0 0 24 24"><path d="M2 12s3.5-7 10-7 10 7 10 7-3.5 7-10 7S2 12 2 12Z"/><circle cx="12" cy="12" r="3"/></symbol>
  <symbol id="i-eye-off" viewBox="0 0 24 24"><path d="M3 3l18 18M9.5 9.6A3 3 0 0 0 12 15a3 3 0 0 0 2.4-1.2M6 6.6C3.7 8.2 2 12 2 12s3.5 7 10 7c2 0 3.8-.7 5.3-1.7M9.5 4.7A11 11 0 0 1 12 5c6.5 0 10 7 10 7-.4.7-1 1.6-2 2.6"/></symbol>
  <symbol id="i-trash" viewBox="0 0 24 24"><path d="M5 7h14M10 7V5a2 2 0 0 1 2-2h0a2 2 0 0 1 2 2v2m-7 0v12a2 2 0 0 0 2 2h6a2 2 0 0 0 2-2V7"/></symbol>
  <symbol id="i-download" viewBox="0 0 24 24"><path d="M12 4v12m0 0 4-4m-4 4-4-4M5 20h14"/></symbol>
  <symbol id="i-check" viewBox="0 0 24 24"><path d="M5 12l5 5L20 7"/></symbol>
  <symbol id="i-x" viewBox="0 0 24 24"><path d="M6 6l12 12M18 6 6 18"/></symbol>
  <symbol id="i-plus" viewBox="0 0 24 24"><path d="M12 5v14M5 12h14"/></symbol>
  <symbol id="i-back" viewBox="0 0 24 24"><path d="M15 6l-6 6 6 6"/></symbol>
  <symbol id="i-search" viewBox="0 0 24 24"><circle cx="11" cy="11" r="7"/><path d="m20 20-4.3-4.3"/></symbol>
  <symbol id="i-filter" viewBox="0 0 24 24"><path d="M4 5h16l-6 8v6l-4-2v-4Z"/></symbol>
  <symbol id="i-settings" viewBox="0 0 24 24"><circle cx="12" cy="12" r="3"/><path d="M19.4 15a1.7 1.7 0 0 0 .3 1.8l.1.1a2 2 0 1 1-2.8 2.8l-.1-.1a1.7 1.7 0 0 0-1.8-.3 1.7 1.7 0 0 0-1 1.5V21a2 2 0 1 1-4 0v-.1a1.7 1.7 0 0 0-1.1-1.5 1.7 1.7 0 0 0-1.8.3l-.1.1a2 2 0 1 1-2.8-2.8l.1-.1a1.7 1.7 0 0 0 .3-1.8 1.7 1.7 0 0 0-1.5-1H3a2 2 0 1 1 0-4h.1a1.7 1.7 0 0 0 1.5-1.1 1.7 1.7 0 0 0-.3-1.8l-.1-.1a2 2 0 1 1 2.8-2.8l.1.1a1.7 1.7 0 0 0 1.8.3h.1A1.7 1.7 0 0 0 10 3.1V3a2 2 0 1 1 4 0v.1a1.7 1.7 0 0 0 1 1.5 1.7 1.7 0 0 0 1.8-.3l.1-.1a2 2 0 1 1 2.8 2.8l-.1.1a1.7 1.7 0 0 0-.3 1.8v.1a1.7 1.7 0 0 0 1.5 1H21a2 2 0 1 1 0 4h-.1a1.7 1.7 0 0 0-1.5 1Z"/></symbol>
  <symbol id="i-share" viewBox="0 0 24 24"><circle cx="18" cy="5" r="3"/><circle cx="6" cy="12" r="3"/><circle cx="18" cy="19" r="3"/><path d="m8.6 13.5 6.8 4M15.4 6.5l-6.8 4"/></symbol>
  <symbol id="i-paperclip" viewBox="0 0 24 24"><path d="M21 11.5 12 21a5 5 0 0 1-7-7l9-9a3.5 3.5 0 0 1 5 5L9.5 19a2 2 0 0 1-3-3l8.5-8.5"/></symbol>
  <symbol id="i-send" viewBox="0 0 24 24"><path d="m4 12 16-8-8 16-2-7Z"/></symbol>
  <symbol id="i-clock" viewBox="0 0 24 24"><circle cx="12" cy="12" r="9"/><path d="M12 7v5l3 2"/></symbol>
  <symbol id="i-offline" viewBox="0 0 24 24"><path d="M3 3l18 18M5 12a13 13 0 0 1 5-3m4 0a13 13 0 0 1 5 3M8.5 15.5a8 8 0 0 1 3-2m1 0a8 8 0 0 1 3 2M12 19.5h.01"/></symbol>
  <symbol id="i-signal" viewBox="0 0 24 24"><path d="M5 12a7 7 0 0 1 14 0M8.5 12a3.5 3.5 0 0 1 7 0M12 12h.01"/></symbol>
  <symbol id="i-document" viewBox="0 0 24 24"><path d="M14 3H7a2 2 0 0 0-2 2v14a2 2 0 0 0 2 2h10a2 2 0 0 0 2-2V8l-5-5Zm-1 0v4a2 2 0 0 0 2 2h4"/></symbol>
  <symbol id="i-image" viewBox="0 0 24 24"><rect x="3" y="5" width="18" height="14" rx="2"/><circle cx="9" cy="10" r="2"/><path d="m21 16-5-4-4 4-2-2-7 5"/></symbol>
  <symbol id="i-pdf" viewBox="0 0 24 24"><path d="M14 3H7a2 2 0 0 0-2 2v14a2 2 0 0 0 2 2h10a2 2 0 0 0 2-2V8l-5-5Zm-1 0v4a2 2 0 0 0 2 2h4M8 14h1.5a1.5 1.5 0 0 1 0 3H8v-3Zm0 0v5m4-5h2.5m-2.5 0v5m0-2.5h2"/></symbol>
  <symbol id="i-text" viewBox="0 0 24 24"><path d="M5 7h14M8 12h8M9 17h6"/></symbol>
  <symbol id="i-sun" viewBox="0 0 24 24"><circle cx="12" cy="12" r="4"/><path d="M12 2v2m0 16v2M4 12H2m20 0h-2m-2.8-7.2-1.4 1.4M6.2 17.8l-1.4 1.4m0-14.4 1.4 1.4m11.6 11.6 1.4 1.4"/></symbol>
  <symbol id="i-moon" viewBox="0 0 24 24"><path d="M21 12.8A9 9 0 1 1 11.2 3a7 7 0 0 0 9.8 9.8Z"/></symbol>
  <symbol id="i-contrast" viewBox="0 0 24 24"><circle cx="12" cy="12" r="9"/><path d="M12 3v18a9 9 0 0 0 0-18Z" fill="currentColor"/></symbol>
  <symbol id="i-droplet" viewBox="0 0 24 24"><path d="M12 3s7 7 7 12a7 7 0 0 1-14 0c0-5 7-12 7-12Z"/></symbol>
  <symbol id="i-restaurant" viewBox="0 0 24 24"><path d="M5 3v8a2 2 0 0 0 2 2h0v8m0-18v8m4-8v8a2 2 0 0 1-2 2m8-10v18M17 12a4 4 0 0 1 0-8h0v18"/></symbol>
  <symbol id="i-sparkle" viewBox="0 0 24 24"><path d="M12 3 13.8 8.2 19 10l-5.2 1.8L12 17l-1.8-5.2L5 10l5.2-1.8L12 3Zm6 11 .9 2.1 2.1.9-2.1.9-.9 2.1-.9-2.1L15 17l2.1-.9.9-2.1Z"/></symbol>
  <symbol id="i-book" viewBox="0 0 24 24"><path d="M12 7v14"/><path d="M3 18a1 1 0 0 1-1-1V4a1 1 0 0 1 1-1h5a4 4 0 0 1 4 4 4 4 0 0 1 4-4h5a1 1 0 0 1 1 1v13a1 1 0 0 1-1 1h-6a3 3 0 0 0-3 3 3 3 0 0 0-3-3z"/></symbol>
  <symbol id="i-pencil" viewBox="0 0 24 24"><path d="M21.174 6.812a1 1 0 0 0-3.986-3.987L3.842 16.174a2 2 0 0 0-.5.83l-1.321 4.352a.5.5 0 0 0 .623.622l4.353-1.32a2 2 0 0 0 .83-.497z"/><path d="m15 5 4 4"/></symbol>
  <symbol id="i-info" viewBox="0 0 24 24"><circle cx="12" cy="12" r="9"/><path d="M12 8h.01M11 12h1v5h1"/></symbol>
  <symbol id="i-youtube" viewBox="0 0 24 24"><path d="M22.5 6.4a2.8 2.8 0 0 0-2-2C18.9 4 12 4 12 4s-6.9 0-8.5.4a2.8 2.8 0 0 0-2 2A29 29 0 0 0 1 12a29 29 0 0 0 .5 5.6 2.8 2.8 0 0 0 2 2c1.6.4 8.5.4 8.5.4s6.9 0 8.5-.4a2.8 2.8 0 0 0 2-2A29 29 0 0 0 23 12a29 29 0 0 0-.5-5.6Z"/><path d="M9.75 15.02 15.5 12 9.75 8.98v6.04Z"/></symbol>
  <!-- Nav-disambiguation icons: added to give Resources, Safe-routing, and
       Community Board distinct glyphs from the canonical map/message icons
       used by Directions and Forum/Messages. -->
  <symbol id="i-compass" viewBox="0 0 24 24"><circle cx="12" cy="12" r="9"/><path d="m16 8-2 6-6 2 2-6 6-2Z"/></symbol>
  <symbol id="i-navigation" viewBox="0 0 24 24"><path d="M12 2 4.5 20 12 17l7.5 3L12 2Z"/></symbol>
  <symbol id="i-megaphone" viewBox="0 0 24 24"><path d="M3 11v2a2 2 0 0 0 2 2h1l4 4V7L6 11H5a2 2 0 0 0-2 0Zm7-4 9-4v18l-9-4M19 10a3 3 0 0 1 0 4"/></symbol>
</svg>
